HIERARCHY
ROOT Hips
{
	OFFSET 0.00000 0.00000 0.00000
	CHANNELS 6 Xposition Yposition Zposition Zrotation Yrotation Xrotation 
	JOINT LHipJoint
	{
		OFFSET 0 0 0
		CHANNELS 3 Zrotation Yrotation Xrotation
		JOINT LeftHip
		{
			OFFSET 1.53139 -1.83434 0.76626
			CHANNELS 3 Zrotation Yrotation Xrotation
			JOINT LeftKnee
			{
				OFFSET 2.56112 -7.03663 0.00000
				CHANNELS 3 Zrotation Yrotation Xrotation
				JOINT LeftAnkle
				{
					OFFSET 2.59983 -7.14299 0.00000
					CHANNELS 3 Zrotation Yrotation Xrotation
					JOINT LeftToe
					{
						OFFSET 0.13742 -0.37757 2.00054
						CHANNELS 3 Zrotation Yrotation Xrotation
						End Site
						{
							OFFSET 0.00000 -0.00000 1.02897
						}
					}
				}
			}
		}
	}
	JOINT RHipJoint
	{
		OFFSET 0 0 0
		CHANNELS 3 Zrotation Yrotation Xrotation
		JOINT RightHip
		{
			OFFSET -1.40122 -1.83435 0.76627
			CHANNELS 3 Zrotation Yrotation Xrotation
			JOINT RightKnee
			{
				OFFSET -2.54052 -6.98003 0.00000
				CHANNELS 3 Zrotation Yrotation Xrotation
				JOINT RightAnkle
				{
					OFFSET -2.63179 -7.23079 0.00000
					CHANNELS 3 Zrotation Yrotation Xrotation
					JOINT RightToe
					{
						OFFSET -0.24131 -0.66299 2.03908
						CHANNELS 3 Zrotation Yrotation Xrotation
						End Site
						{
							OFFSET -0.00000 -0.00000 1.07391
						}
					}
				}
			}
		}
	}
	JOINT lowerback
	{
		OFFSET 0 0 0
		CHANNELS 3 Zrotation Yrotation Xrotation
		JOINT Chest
		{
			OFFSET 0.01174 2.10302 -0.29778
			CHANNELS 3 Zrotation Yrotation Xrotation
			JOINT Chest2
			{
				OFFSET 0.00772 2.13227 -0.01247
				CHANNELS 3 Zrotation Yrotation Xrotation
				JOINT lowerneck
				{
					OFFSET 0 0 0
					CHANNELS 3 Zrotation Yrotation Xrotation
					JOINT Neck
					{
						OFFSET -0.09219 1.60848 0.31481
						CHANNELS 3 Zrotation Yrotation Xrotation
						JOINT Head
						{
							OFFSET 0.13974 1.65456 -0.31134
							CHANNELS 3 Zrotation Yrotation Xrotation
							End Site
							{
								OFFSET 0.04742 1.69515 -0.14578
							}
						}
					}
				}
				JOINT LeftCollar
				{
					OFFSET 0 0 0
					CHANNELS 3 Zrotation Yrotation Xrotation
					JOINT LeftShoulder
					{
						OFFSET 3.24909 1.02882 -0.23993
CHANNELS 3 Zrotation Xrotation Yrotation
						JOINT LeftElbow
						{
OFFSET 0 -5.329550 -0.000000
CHANNELS 3 Zrotation Xrotation Yrotation
							JOINT LeftWrist
							{
OFFSET 0 -3.692320 -0.000000
CHANNELS 3 Zrotation Xrotation Yrotation
								JOINT lhand
								{
									OFFSET 0 0 0
CHANNELS 3 Zrotation Xrotation Yrotation
									JOINT LFingers
									{
OFFSET 0 -0.536600 -0.000000
CHANNELS 3 Zrotation Xrotation Yrotation
										End Site
										{
OFFSET 0 -0.432620 -0.000000
										}
									}
								}
								JOINT LThumb
								{
OFFSET 0 0.000000 0.000000
CHANNELS 3 Zrotation Xrotation Yrotation
									End Site
									{
OFFSET 0 -0.439220 0.439220
									}
								}
							}
						}
					}
				}
				JOINT RightCollar
				{
					OFFSET 0 0 0
					CHANNELS 3 Zrotation Yrotation Xrotation
					JOINT RightShoulder
					{
						OFFSET -3.21387 0.93002 -0.34594
CHANNELS 3 Zrotation Xrotation Yrotation
						JOINT RightElbow
						{
OFFSET 0 -5.234310 0.000000
CHANNELS 3 Zrotation Xrotation Yrotation
							JOINT RightWrist
							{
OFFSET 0 -3.553010 -0.000000
CHANNELS 3 Zrotation Xrotation Yrotation
								JOINT rhand
								{
									OFFSET 0 0 0
CHANNELS 3 Zrotation Xrotation Yrotation
									JOINT RFingers
									{
OFFSET 0 -0.772520 -0.000000
CHANNELS 3 Zrotation Xrotation Yrotation
										End Site
										{
OFFSET 0 -0.622830 -0.000000
										}
									}
								}
								JOINT RThumb
								{
OFFSET 0 0.000000 0.000000
CHANNELS 3 Zrotation Xrotation Yrotation
									End Site
									{
OFFSET 0 -0.632340 0.632340
									}
								}
							}
						}
					}
				}
			}
		}
	}
}
MOTION
Frames: 6
Frame Time: 0.008333333333333333
-11.926400 17.788900 -12.870100 6.223200 -3.683800 -1.480000 0.000000 0.000000 0.000000 -29.118700 2.216500 23.018900 0.000000 -0.000000 -0.000000 -0.075500 -4.870700 1.913700 1.362000 -7.386800 -20.866400 0.000000 0.000000 0.000000 12.546500 6.504400 -23.304700 -1.918300 -8.693700 24.841900 0.015400 2.308600 0.102900 -0.237200 -3.134500 8.653400 -7.398600 0.301500 11.051600 -0.523400 -0.538500 1.002900 3.702900 -0.113400 -5.092000 -12.045900 -5.059500 -23.081700 7.786200 -5.252500 28.699000 4.213300 -2.524900 14.263900 -0.000000 0.000000 0.000000 6.116100 -5.483300 -24.623100 18.893000 -29.285500 4.978400 21.336700 14.750600 -27.402000 0.000000 0.000000 0.000000 -7.125000 0.000000 0.000000 -10.195800 58.786800 3.459000 -0.000000 0.000000 0.000000 1.926400 2.041000 10.280500 -13.175700 -21.544100 -2.517400 -17.736700 7.637900 -11.151100 0.000000 0.000000 0.000000 7.125000 0.000000 -0.000000 6.586600 18.331500 4.208700
-11.943670 17.802368 -12.765835 6.110815 -3.771890 -1.546503 0.000000 0.000000 0.000000 -28.909139 2.413560 23.355861 0.000000 0.000000 0.000000 -0.086262 -5.217971 2.367234 1.487337 -7.700691 -21.810586 0.000000 0.000000 0.000000 12.812576 6.372103 -22.958975 -1.936343 -8.732171 24.961180 0.014949 2.261558 0.134734 -0.209942 -2.946720 8.130721 -7.189490 0.308460 11.056433 -0.505421 -0.504604 0.965782 3.599279 -0.098450 -5.139364 -11.979913 -5.036430 -23.073387 7.651841 -5.206232 28.810418 4.158783 -2.518520 14.298247 0.000000 0.000000 0.000000 5.970528 -5.127652 -24.397106 18.789573 -29.156232 4.927943 21.634030 14.711807 -26.927201 0.000000 0.000000 0.000000 -7.125000 0.000000 0.000000 -9.626982 58.372639 3.170950 0.000000 0.000000 0.000000 1.986459 2.181545 9.891922 -13.063638 -21.380292 -2.476545 -17.697327 8.021580 -11.369747 0.000000 0.000000 0.000000 7.125000 0.000000 0.000000 6.615405 18.107504 4.260317
-11.961547 17.817945 -12.664862 5.865894 -3.890191 -1.555185 0.000000 0.000000 0.000000 -28.552686 2.596670 23.619260 0.000000 0.000000 0.000000 -0.087926 -5.392531 3.065712 1.570883 -7.908211 -22.435689 0.000000 0.000000 0.000000 13.221904 6.341267 -22.571171 -1.936047 -8.731566 24.959273 0.014844 2.227658 0.246511 -0.163015 -2.563585 7.067988 -6.865720 0.313946 11.045439 -0.443080 -0.455170 0.918267 3.475268 -0.077665 -5.190656 -11.946533 -5.011541 -23.090634 7.553237 -5.151472 28.896969 4.125523 -2.506336 14.328493 0.000000 0.000000 0.000000 5.814328 -4.799296 -24.186016 18.654087 -28.986299 4.862208 22.045787 14.683555 -26.422480 0.000000 0.000000 0.000000 -7.125000 0.000000 0.000000 -8.929323 57.950796 2.849542 0.000000 0.000000 0.000000 2.036611 2.295260 9.626842 -12.959546 -21.227863 -2.438722 -17.698503 8.113297 -11.404016 0.000000 0.000000 0.000000 7.125000 0.000000 0.000000 6.614751 18.071902 4.265117
-11.980170 17.836117 -12.567943 5.457790 -4.045686 -1.492677 0.000000 0.000000 0.000000 -28.015379 2.762605 23.792090 0.000000 0.000000 0.000000 -0.078388 -5.354447 4.065767 1.602974 -7.984767 -22.667933 0.000000 0.000000 0.000000 13.807606 6.435350 -22.131556 -1.913171 -8.682848 24.808159 0.015167 2.209936 0.456717 -0.091872 -1.939928 5.340332 -6.400780 0.317619 11.014959 -0.326120 -0.386605 0.857950 3.326152 -0.049698 -5.246784 -11.953299 -4.984411 -23.139352 7.498656 -5.086258 28.952904 4.118435 -2.487003 14.353689 0.000000 0.000000 0.000000 5.645043 -4.504544 -23.993273 18.479130 -28.766298 4.777661 22.598431 14.668283 -25.880920 0.000000 0.000000 0.000000 -7.125000 0.000000 0.000000 -8.073035 57.519494 2.487063 0.000000 0.000000 0.000000 2.074567 2.375939 9.513813 -12.865270 -21.089444 -2.404633 -17.749605 7.845546 -11.211273 0.000000 0.000000 0.000000 7.125000 0.000000 0.000000 6.577826 18.268253 4.212276
-12.003992 17.855387 -12.474202 4.983780 -4.098422 -1.484294 0.000000 0.000000 0.000000 -27.693875 2.047770 21.691198 0.116219 1.668540 4.602955 -0.095075 -5.620080 3.036149 1.594516 -7.964743 -22.607031 0.000000 0.000000 0.000000 14.460717 6.620295 -21.591376 -1.902078 -8.659027 24.734448 0.013063 2.146236 0.095532 -0.122219 -2.232506 6.149566 -5.959119 0.288368 11.056509 -0.161044 -0.365464 0.827613 3.248316 -0.045125 -5.305338 -11.980109 -4.958437 -23.225846 7.471685 -5.019253 29.013921 4.126884 -2.464783 14.390727 0.000000 0.000000 0.000000 5.446298 -4.227468 -23.663575 18.310008 -28.551958 4.696639 23.036589 14.890069 -25.778416 0.000000 0.000000 0.000000 -7.125000 0.000000 0.000000 -7.550847 57.511075 2.321902 0.000000 0.000000 0.000000 2.080406 2.397354 9.321302 -12.736682 -20.900021 -2.358644 -17.851999 7.499006 -11.274479 0.000000 0.000000 0.000000 7.125000 0.000000 0.000000 6.506360 18.194966 4.176359
-12.027416 17.873584 -12.379983 4.568272 -4.168719 -1.475795 0.000000 0.000000 0.000000 -27.416636 1.403880 19.730799 0.258685 3.213351 8.878607 -0.109243 -5.851593 2.261277 1.556525 -7.872471 -22.327992 0.000000 0.000000 0.000000 15.052989 6.742250 -21.069123 -1.889239 -8.631378 24.648947 0.012388 2.176581 -0.192027 -0.137810 -2.383192 6.566322 -5.575858 0.268365 11.069306 -0.017582 -0.338458 0.797766 3.179408 -0.037194 -5.347475 -11.979528 -4.933285 -23.287820 7.432786 -4.963987 29.077991 4.123475 -2.446692 14.424004 0.000000 0.000000 0.000000 5.249054 -3.927988 -23.292865 18.159345 -28.360543 4.624727 23.326735 15.140838 -25.779537 0.000000 0.000000 0.000000 -7.125000 0.000000 0.000000 -7.236809 57.576390 2.236282 0.000000 0.000000 0.000000 2.092502 2.429237 9.073841 -12.607968 -20.710052 -2.312857 -17.886275 7.293632 -11.238603 0.000000 0.000000 0.000000 7.125000 0.000000 0.000000 6.482234 18.229658 4.155543
